<svg width="182" height="46" viewBox="0 0 182 46" fill="none" xmlns="http://www.w3.org/2000/svg">
<g clip-path="url(#clip0_389_102)">
<mask id="mask0_389_102" style="mask-type:luminance" maskUnits="userSpaceOnUse" x="0" y="0" width="182" height="46">
<path d="M182 0H0V46H182V0Z" fill="white"/>
</mask>
<g mask="url(#mask0_389_102)">
<mask id="mask1_389_102" style="mask-type:luminance" maskUnits="userSpaceOnUse" x="0" y="0" width="182" height="46">
<path d="M182 0H0V46H182V0Z" fill="white"/>
</mask>
<g mask="url(#mask1_389_102)">
<path fill-rule="evenodd" clip-rule="evenodd" d="M25.7407 46L45.9218 26.2056H45.9171C53.8701 18.4096 57.0979 17.226 72.2642 17.226H132.751L150.155 0H69.9705C49.6708 0 43.9312 1.955 32.0253 13.8671L0 46H25.7407ZM72.6294 19.9765H130.154L114.2 36.1052H72.928C65.3636 36.1052 63.6903 36.4646 59.9366 40.2596L54.2588 46H30.3902L48.0357 28.1606C54.965 21.16 57.3539 19.9765 72.6294 19.9765ZM182 0L136.377 46H108.162L153.662 0H182ZM151.96 44.5434C152.908 45.516 154.103 46 155.539 46C156.975 46 158.155 45.516 159.089 44.5529C160.022 43.5898 160.487 42.3966 160.487 40.9784C160.487 39.56 160.018 38.3669 159.079 37.3941C158.141 36.4215 156.956 35.9375 155.52 35.9375C154.084 35.9375 152.894 36.4215 151.951 37.3846C151.008 38.3477 150.534 39.5409 150.534 40.9591C150.534 42.3775 151.008 43.5706 151.96 44.5434ZM152.553 37.9644C153.349 37.1402 154.335 36.7281 155.51 36.7281C156.691 36.7281 157.676 37.1402 158.468 37.9644C159.26 38.7885 159.658 39.79 159.658 40.9688C159.658 42.1475 159.26 43.1441 158.468 43.9635C157.672 44.7829 156.691 45.1902 155.51 45.1902C154.33 45.1902 153.345 44.7781 152.553 43.954C151.761 43.1298 151.363 42.1331 151.363 40.9591C151.363 39.7852 151.761 38.7885 152.553 37.9644ZM154.539 43.7719V41.7977L154.544 41.8025H155.657L156.601 43.7766H157.752L156.715 41.6587C157.065 41.4958 157.312 41.285 157.458 41.0215C157.605 40.7579 157.676 40.3554 157.676 39.814C157.676 39.2725 157.497 38.8652 157.136 38.5969C156.776 38.3237 156.236 38.1896 155.52 38.1896H153.444V43.7719H154.539ZM154.52 40.9304V39.0521H155.425C156.207 39.0521 156.596 39.3635 156.596 39.9912C156.596 40.3219 156.52 40.5615 156.368 40.71C156.221 40.8585 155.975 40.9304 155.634 40.9304H154.52Z" fill="white"/>
</g>
</g>
</g>
<defs>
<clipPath id="clip0_389_102">
<rect width="182" height="46" fill="white"/>
</clipPath>
</defs>
</svg>
